<svg xmlns="http://www.w3.org/2000/svg" xmlns:xlink="http://www.w3.org/1999/xlink" width="500" zoomAndPan="magnify" viewBox="0 0 375 374.999991" height="500" preserveAspectRatio="xMidYMid meet" version="1.0"><defs><g/></defs><g fill="#ff7605" fill-opacity="1"><g transform="translate(56.884165, 207.985492)"><g><path d="M 27.671875 -34.03125 C 32.765625 -34.03125 37.082031 -32.253906 40.625 -28.703125 C 44.175781 -25.148438 45.953125 -20.832031 45.953125 -15.75 C 45.953125 -10.757812 44.175781 -6.488281 40.625 -2.9375 C 37.082031 0.613281 32.765625 2.390625 27.671875 2.390625 C 22.691406 2.390625 18.425781 0.613281 14.875 -2.9375 C 11.320312 -6.488281 9.546875 -10.757812 9.546875 -15.75 C 9.546875 -20.832031 11.320312 -25.148438 14.875 -28.703125 C 18.425781 -32.253906 22.691406 -34.03125 27.671875 -34.03125 Z M 27.671875 -34.03125 "/></g></g></g><g fill="#ff7605" fill-opacity="1"><g transform="translate(104.428571, 207.985492)"><g><path d="M 15.109375 -10.09375 C 7.472656 -18.414062 3.65625 -28.617188 3.65625 -40.703125 C 3.65625 -52.796875 7.472656 -63.03125 15.109375 -71.40625 C 22.742188 -79.78125 32.441406 -83.96875 44.203125 -83.96875 C 55.023438 -83.96875 63.929688 -80.578125 70.921875 -73.796875 L 70.921875 -136.765625 L 99.078125 -136.765625 L 99.078125 0 L 71.25 0 L 71.25 -9.21875 L 70.921875 -9.21875 C 63.929688 -1.476562 55.023438 2.390625 44.203125 2.390625 C 32.441406 2.390625 22.742188 -1.769531 15.109375 -10.09375 Z M 39.046875 -54.546875 C 35.390625 -50.941406 33.5625 -46.328125 33.5625 -40.703125 C 33.5625 -35.085938 35.304688 -30.503906 38.796875 -26.953125 C 42.296875 -23.398438 46.910156 -21.625 52.640625 -21.625 C 58.148438 -21.625 62.679688 -23.425781 66.234375 -27.03125 C 69.785156 -30.632812 71.5625 -35.195312 71.5625 -40.71875 C 71.5625 -46.332031 69.734375 -50.941406 66.078125 -54.546875 C 62.421875 -58.148438 57.941406 -59.953125 52.640625 -59.953125 C 47.234375 -59.953125 42.703125 -58.148438 39.046875 -54.546875 Z M 39.046875 -54.546875 "/></g></g></g><g fill="#ff7605" fill-opacity="1"><g transform="translate(205.08375, 207.985492)"><g><path d="M 17.25 -9.6875 C 8.1875 -17.75 3.65625 -28.085938 3.65625 -40.703125 C 3.65625 -53.328125 8.375 -63.691406 17.8125 -71.796875 C 27.25 -79.910156 38.910156 -83.96875 52.796875 -83.96875 C 66.472656 -83.96875 78.003906 -79.882812 87.390625 -71.71875 C 96.773438 -63.5625 101.46875 -53.226562 101.46875 -40.71875 C 101.46875 -28.207031 96.878906 -17.894531 87.703125 -9.78125 C 78.535156 -1.664062 66.898438 2.390625 52.796875 2.390625 C 38.171875 2.390625 26.320312 -1.632812 17.25 -9.6875 Z M 39.046875 -54.546875 C 35.390625 -50.941406 33.5625 -46.328125 33.5625 -40.703125 C 33.5625 -35.085938 35.304688 -30.503906 38.796875 -26.953125 C 42.296875 -23.398438 46.910156 -21.625 52.640625 -21.625 C 58.148438 -21.625 62.679688 -23.425781 66.234375 -27.03125 C 69.785156 -30.632812 71.5625 -35.195312 71.5625 -40.71875 C 71.5625 -46.332031 69.734375 -50.941406 66.078125 -54.546875 C 62.421875 -58.148438 57.941406 -59.953125 52.640625 -59.953125 C 47.234375 -59.953125 42.703125 -58.148438 39.046875 -54.546875 Z M 39.046875 -54.546875 "/></g></g></g></svg>